<?xml version="1.0" encoding="iso-8859-1"?>
<!-- Generator: Adobe Illustrator 19.0.0, SVG Export Plug-In . SVG Version: 6.00 Build 0)  -->
<svg version="1.1" id="Layer_1" xmlns="http://www.w3.org/2000/svg" xmlns:xlink="http://www.w3.org/1999/xlink" x="0px" y="0px"
	 viewBox="0 0 512 512" style="enable-background:new 0 0 512 512;" xml:space="preserve">
<circle style="fill:#FFEBB4;" cx="255.999" cy="255.999" r="219.549"/>
<path style="fill:#FFFFFF;" d="M341.313,255.999c0-47.156-38.158-85.313-85.313-85.313s-85.313,38.158-85.313,85.313
	s38.158,85.313,85.313,85.313S341.313,303.155,341.313,255.999z"/>
<path style="fill:#FFB14E;" d="M426.626,255.999l42.657,24.26l42.657-24.26c0-70.732-28.618-134.717-74.92-181.019l-47.629,12.404
	l-12.712,47.936C407.547,166.188,426.626,208.845,426.626,255.999z"/>
<path style="fill:#FF755C;" d="M376.651,376.651l13.008,47.317l47.317,13.008C486.992,386.96,512,321.48,512,255.999h-85.333
	C426.666,299.653,409.994,343.306,376.651,376.651z"/>
<path style="fill:#FF4181;" d="M255.999,426.626l-24.26,42.657l24.26,42.657c70.732,0,134.717-28.618,181.019-74.92l-60.34-60.341
	C345.812,407.547,303.155,426.626,255.999,426.626z"/>
<path style="fill:#3B8BC0;" d="M135.349,376.651l-47.317,13.008l-13.008,47.317C125.04,486.992,190.52,512,256.001,512v-85.333
	C212.347,426.666,168.693,409.994,135.349,376.651z"/>
<path style="fill:#4EB9FF;" d="M85.374,255.999l-42.657-24.26l-42.657,24.26c0,70.732,28.618,134.717,74.92,181.019l60.34-60.34
	C104.453,345.812,85.374,303.155,85.374,255.999z"/>
<path style="fill:#85C250;" d="M135.349,135.349l-13.008-47.317L75.024,75.024C25.008,125.04,0,190.519,0,255.999h85.333
	C85.333,212.347,102.006,168.693,135.349,135.349z"/>
<path style="fill:#C9D467;" d="M255.999,85.374l24.26-42.657l-24.26-42.657c-70.732,0-134.717,28.618-181.019,74.92l60.34,60.34
	C166.188,104.453,208.845,85.374,255.999,85.374z"/>
<path style="fill:#FFCE47;" d="M376.651,135.349l60.325-60.325C386.96,25.008,321.48,0,255.999,0v85.333
	C299.653,85.333,343.306,102.006,376.651,135.349z"/>
<g>
</g>
<g>
</g>
<g>
</g>
<g>
</g>
<g>
</g>
<g>
</g>
<g>
</g>
<g>
</g>
<g>
</g>
<g>
</g>
<g>
</g>
<g>
</g>
<g>
</g>
<g>
</g>
<g>
</g>
</svg>
